# xmcd CD database file
#
# Track frame offsets:
#	150
#	12015
#	22627
#	36225
#	49007
#	61725
#	76365
#	92625
#	105970
#	118235
#	139377
#	150410
#	162865
#
# Disc length: 2309 seconds
#
# Revision: 2
# Processed by: cddbd v1.5.1PL2 Copyright (c) Steve Scherf et al.
# Submitted via: CDex 1.51
#
DISCID=8f09030d
DTITLE=Diverse - Country-Hits 1960-1993
DYEAR=1900
DGENRE=
TTITLE0=Johnny Cash - Ring of Fire
TTITLE1=Dave Dudley - Six Days On The Road
TTITLE2=Garth Brooks - Much Too Young
TTITLE3=Johnny Horten - North To Alaska 
TTITLE4=Patsy Cline - I Fall To Pieces
TTITLE5=Marty Robins - Don´t Worry
TTITLE6=James Taylor - Carolina In My Mind
TTITLE7=Stuart Hamblen - This Ole House
TTITLE8=Hank Thompson - The Wild Side Of Life
TTITLE9=Marty Robins - El Paso
TTITLE10=Buck Owens - Excuse Me
TTITLE11=Ray Price - One More Time
TTITLE12=Jim Reeves - He´ll Have To Go
EXTD=
EXTT0=
EXTT1=
EXTT2=
EXTT3=
EXTT4=
EXTT5=
EXTT6=
EXTT7=
EXTT8=
EXTT9=
EXTT10=
EXTT11=
EXTT12=
PLAYORDER=
